# xmcd
#
# Track frame offsets:
#	150
#	17365
#	33100
#	47215
#	65197
#	77262
#	94967
#	113245
#	128422
#	146712
#	163792
#	177720
#	192285
#	205870
#	220145
#
# Disc length: 3175 seconds
#
# Revision: 1
# Processed by: cddbd v1.5.1PL2 Copyright (c) Steve Scherf et al.
# Submitted via: audiograbber 1.83.01
#
DISCID=d10c650f
DTITLE=Music Maestro Top Country Hits 90's Vol 45 - Mm6179
DYEAR=1900
DGENRE=Karaoke
TTITLE0=Tim Mcgraw - Maybe We Should Just Sleep On It
TTITLE1=Daryle Singletary - Amen Kind Of Love
TTITLE2=Bryan White - That's Another Song
TTITLE3=Dolly Parton - Just When I Needed You Most
TTITLE4=Br5 49 - Cherokee Boogie
TTITLE5=John Michael Montgomery - Friends
TTITLE6=Faith Hill - I Can't Do That Anymore
TTITLE7=Mark Wills - High Low And In Between
TTITLE8=Garth Brooks - That Ol' Wind
TTITLE9=Doug Supernaw And Beach Boys - Long Tall Texan
TTITLE10=Deryl Dodd - Friends Don't Drive Friends To Drinkin'
TTITLE11=Terri Clark - Poor Poor Pitiful Me
TTITLE12=Paul Jefferson - I Might Just Make It
TTITLE13=Aaron Tippin - How's The Radio Know
TTITLE14=Mindy McCready - Maybe He'll Notice Her Now
EXTD=
EXTT0=
EXTT1=
EXTT2=
EXTT3=
EXTT4=
EXTT5=
EXTT6=
EXTT7=
EXTT8=
EXTT9=
EXTT10=
EXTT11=
EXTT12=
EXTT13=
EXTT14=
PLAYORDER=
